<?xml version="1.0" encoding="UTF-8" standalone="no"?><!DOCTYPE svg PUBLIC "-//W3C//DTD SVG 1.1//EN" "http://www.w3.org/Graphics/SVG/1.1/DTD/svg11.dtd"><svg width="100%" height="100%" viewBox="0 0 688 361" version="1.1" xmlns="http://www.w3.org/2000/svg" xmlns:xlink="http://www.w3.org/1999/xlink" xml:space="preserve" style="fill-rule:evenodd;clip-rule:evenodd;stroke-linecap:round;stroke-linejoin:round;stroke-miterlimit:1.41421;"><g id="Layer1"><rect x="0" y="0" width="688" height="361" style="fill:#5ccdae;"/></g><g id="Layer_x0020_1"><path id="path10" d="M573.58,43.197l0,4.13c-0.04,1.227 -0.285,2.331 -0.737,3.271c-0.367,0.817 -0.942,1.596 -1.759,2.208c-0.817,0.653 -1.921,1.022 -3.393,1.022c-1.474,0 -2.618,-0.369 -3.435,-1.022c-0.817,-0.612 -1.349,-1.391 -1.717,-2.208c-0.449,-0.94 -0.694,-2.044 -0.737,-3.271l0,-17.708c0.043,-1.187 0.285,-2.291 0.737,-3.231c0.368,-0.817 0.9,-1.636 1.717,-2.248c0.817,-0.613 1.963,-1.024 3.435,-1.024c1.474,0 2.576,0.411 3.393,1.024c0.817,0.614 1.392,1.431 1.759,2.248c0.45,0.942 0.697,2.044 0.737,3.231l0,4.13l-4.13,0l0,-4.13c0,-0.817 -0.205,-1.392 -0.655,-1.882c-0.204,-0.204 -0.572,-0.327 -1.022,-0.327c-0.777,0 -1.144,0.572 -1.349,1.104c-0.12,0.328 -0.162,0.697 -0.205,1.107l0,17.708c0.043,0.858 0.288,1.432 0.697,1.88c0.205,0.206 0.49,0.327 0.857,0.327c0.942,0 1.31,-0.49 1.514,-1.104c0.121,-0.286 0.163,-0.655 0.163,-1.105l0,-4.13l4.13,0l0,0Zm12.871,4.867c-0.12,2.169 -0.775,3.68 -2.206,4.867c-0.737,0.614 -1.759,0.899 -3.108,0.899c-2.661,0 -3.968,-1.473 -4.622,-2.945c-0.368,-0.857 -0.613,-1.839 -0.653,-2.943l0,-11.248c0.123,-2.168 0.775,-3.76 2.207,-4.987c0.697,-0.617 1.719,-0.902 3.068,-0.902c2.658,0 4.007,1.474 4.662,2.904c0.367,0.859 0.612,1.801 0.652,2.865l0,11.492l0,-0.002l0,0Zm-3.885,-11.372c0.042,-0.857 -0.122,-1.472 -0.532,-1.964c-0.205,-0.204 -0.532,-0.327 -0.9,-0.327c-0.779,0 -1.106,0.532 -1.269,1.144c-0.122,0.328 -0.162,0.697 -0.122,1.145l0,11.247c-0.04,0.858 0.165,1.474 0.532,1.922c0.205,0.205 0.49,0.327 0.859,0.327c0.775,0 1.145,-0.49 1.307,-1.104c0.123,-0.327 0.165,-0.697 0.123,-1.145l0,-11.247l0.002,0.002l0,0Zm17.189,16.809l-4.13,0l0,-1.474c-0.694,0.655 -1.307,1.145 -2.084,1.514c-0.411,0.205 -0.819,0.285 -1.186,0.285c-1.145,0 -1.922,-0.654 -2.414,-1.514c-0.532,-0.817 -0.775,-1.921 -0.775,-2.861l0,-14.273c0,-0.939 0.245,-2.044 0.775,-2.903c0.492,-0.817 1.269,-1.474 2.414,-1.474c0.775,0 1.596,0.45 2.208,0.902c0.368,0.285 0.695,0.572 1.062,0.899l0,-9.161l4.13,0l0,30.06l0,0Zm-4.13,-17.464c0,-0.654 -0.614,-1.349 -1.226,-1.349c-0.615,0 -1.105,0.572 -1.105,1.349l0,12.555c0,0.779 0.49,1.349 1.105,1.349c0.612,0 1.226,-0.572 1.226,-1.349l0,-12.555Zm17.789,9.447l0,2.578c-0.123,2.168 -0.775,3.68 -2.249,4.867c-0.737,0.614 -1.759,0.899 -3.108,0.899c-2.658,0 -4.007,-1.473 -4.662,-2.945c-0.367,-0.857 -0.612,-1.839 -0.654,-2.943l0,-11.248c0.122,-2.168 0.817,-3.76 2.291,-4.987c0.696,-0.617 1.718,-0.902 3.067,-0.902c2.659,0 4.008,1.474 4.663,2.903c0.367,0.86 0.612,1.801 0.652,2.866l0,6.503l-6.831,0l0,4.867c0.043,0.857 0.285,1.473 0.655,1.921c0.205,0.205 0.49,0.327 0.859,0.327c0.777,0 1.145,-0.489 1.307,-1.104c0.123,-0.327 0.163,-0.697 0.163,-1.144l0,-2.456l3.845,0l0.002,-0.002l0,0Zm-6.83,-5.644l2.985,0l0,-3.15c0,-0.857 -0.162,-1.472 -0.572,-1.964c-0.205,-0.205 -0.532,-0.327 -0.9,-0.327c-0.779,0 -1.106,0.532 -1.309,1.144c-0.122,0.328 -0.162,0.697 -0.204,1.145l0,3.152l0,0Zm17.843,-4.457c-0.367,-0.123 -0.775,-0.163 -1.144,-0.163c-0.653,0 -1.432,0.083 -2.084,0.695c-0.78,0.655 -0.902,1.349 -0.902,2.044l0,15.542l-4.13,0l0,-22.373l4.13,0l0,2.496c0.042,-0.285 0.327,-0.982 0.982,-1.636c0.654,-0.615 1.636,-1.187 3.148,-1.187l0,4.582Zm1.803,18.118l0,-30.06l3.478,0c4.088,0 6.298,0.817 7.483,3.108c1.144,2.291 1.309,6.053 1.309,11.942c0,5.889 -0.165,9.611 -1.309,11.902c-1.185,2.291 -3.395,3.108 -7.483,3.108l-3.478,0l0,0Zm4.42,-4.417c1.512,0 2.371,-0.165 2.821,-1.638c0.204,-0.695 0.369,-1.759 0.409,-3.191c0.042,-1.431 0.042,-3.353 0.042,-5.808c0,-2.454 0,-4.375 -0.042,-5.809c-0.04,-1.389 -0.205,-2.453 -0.409,-3.19c-0.448,-1.432 -1.307,-1.594 -2.821,-1.594l0,21.23Zm20.981,-1.022c-0.12,2.168 -0.775,3.68 -2.206,4.867c-0.737,0.614 -1.759,0.899 -3.109,0.899c-2.66,0 -3.967,-1.473 -4.621,-2.945c-0.368,-0.857 -0.615,-1.839 -0.653,-2.943l0,-11.248c0.123,-2.168 0.777,-3.76 2.207,-4.987c0.696,-0.617 1.718,-0.902 3.068,-0.902c2.658,0 4.007,1.474 4.662,2.903c0.367,0.86 0.612,1.801 0.652,2.866l0,11.492l0,-0.002l0,0Zm-3.885,-11.372c0.042,-0.857 -0.123,-1.472 -0.532,-1.964c-0.205,-0.205 -0.532,-0.327 -0.9,-0.327c-0.779,0 -1.106,0.532 -1.269,1.144c-0.122,0.328 -0.162,0.697 -0.122,1.145l0,11.247c-0.04,0.858 0.164,1.474 0.532,1.922c0.205,0.205 0.49,0.327 0.859,0.327c0.777,0 1.145,-0.49 1.307,-1.104c0.123,-0.328 0.165,-0.697 0.123,-1.145l0,-11.247l0.002,0.002l0,0Zm6.636,-13.251l4.13,0l0,4.13l-4.13,0l0,-4.13Zm4.13,7.689l0,22.943c0,1.145 0,2.946 -0.572,4.419c-0.572,1.512 -1.839,2.699 -4.172,2.699c-0.653,0 -1.105,-0.042 -1.39,-0.123c-0.164,-0.042 -0.285,-0.082 -0.409,-0.122l0,-3.803c0.122,0.04 0.245,0.04 0.367,0.08c0.285,0.043 0.532,0.083 0.779,0.083c0.695,0 1.022,-0.572 1.185,-1.267c0.042,-0.327 0.082,-0.697 0.082,-1.064c0,-0.37 0,-0.697 0,-0.942l0,-22.903l4.13,0l0,0Zm13.486,16.934c-0.12,2.168 -0.777,3.68 -2.206,4.867c-0.737,0.614 -1.759,0.899 -3.108,0.899c-2.661,0 -3.968,-1.473 -4.622,-2.945c-0.368,-0.857 -0.613,-1.839 -0.653,-2.943l0,-11.248c0.123,-2.168 0.775,-3.76 2.207,-4.987c0.696,-0.617 1.718,-0.902 3.068,-0.902c2.658,0 4.007,1.474 4.662,2.903c0.367,0.86 0.612,1.801 0.652,2.866l0,11.492l0,-0.002l0,0Zm-3.885,-11.372c0.042,-0.857 -0.123,-1.472 -0.532,-1.964c-0.205,-0.205 -0.532,-0.327 -0.9,-0.327c-0.777,0 -1.106,0.532 -1.269,1.144c-0.122,0.328 -0.162,0.697 -0.122,1.145l0,11.247c-0.04,0.858 0.164,1.474 0.532,1.922c0.205,0.205 0.49,0.327 0.859,0.327c0.777,0 1.145,-0.49 1.309,-1.104c0.123,-0.328 0.165,-0.697 0.123,-1.145l0,-11.247l0,0.002l0,0Z"/><g id="__833871744_"><circle id="circle13" cx="534.478" cy="38.571" r="22.134" style="fill:#fefefe;"/><path id="path15" d="M534.571,16c12.466,0 22.571,10.105 22.571,22.571c0,12.466 -10.105,22.571 -22.571,22.571c-12.466,0 -22.571,-10.105 -22.571,-22.571c0,-12.466 10.105,-22.571 22.571,-22.571Zm-0.228,1.168c-0.105,0 -0.211,0.002 -0.317,0.004c-11.672,0.169 -21.091,9.691 -21.091,21.401c0,11.725 9.441,21.254 21.132,21.402c-5.782,-0.146 -10.427,-4.884 -10.427,-10.699c0,-5.908 4.795,-10.703 10.703,-10.703c5.908,0 10.703,-4.795 10.703,-10.703c0,-5.907 -4.795,-10.702 -10.703,-10.702l0,0Z"/><path id="path17" d="M530.965,29.976l0,-7.98c0,-0.348 0.127,-0.65 0.382,-0.903c0.253,-0.254 0.555,-0.382 0.906,-0.382l4.159,0c0.344,0 0.642,0.126 0.893,0.382c0.252,0.253 0.376,0.555 0.376,0.903l0,7.98c0,0.354 -0.126,0.656 -0.376,0.907c-0.251,0.252 -0.555,0.376 -0.91,0.376l-4.142,0c-0.359,0 -0.665,-0.124 -0.914,-0.376c-0.25,-0.251 -0.372,-0.553 -0.372,-0.907l-0.002,0l0,0Zm5.399,-0.049l0,-7.865l-4.065,0l0,7.865l4.065,0Z"/><path id="path19" d="M532.485,54.097l2.048,0l0,-7.866l-2.014,0c-0.186,0 -0.342,-0.065 -0.473,-0.194c-0.131,-0.129 -0.194,-0.287 -0.194,-0.473c0,-0.183 0.065,-0.342 0.194,-0.471c0.129,-0.128 0.287,-0.194 0.473,-0.194l3.349,0l0,9.2l1.334,0l0,-2.777c0,-0.179 0.065,-0.336 0.194,-0.469c0.129,-0.133 0.287,-0.198 0.471,-0.198c0.186,0 0.344,0.065 0.473,0.194c0.129,0.131 0.194,0.287 0.194,0.473l0,3.444c0,0.186 -0.065,0.344 -0.194,0.475c-0.129,0.129 -0.285,0.192 -0.473,0.192l-5.382,0c-0.186,0 -0.342,-0.067 -0.471,-0.2c-0.131,-0.136 -0.194,-0.296 -0.194,-0.482c0,-0.179 0.065,-0.334 0.194,-0.462c0.129,-0.127 0.287,-0.19 0.471,-0.19l0,-0.002l0,0Z" style="fill:#fff;"/></g></g><g id="Ninja-Female-1-Laptop-Sitting"><path d="M202.877,194.153c-2.303,-4.543 -5.85,-8.339 -10.766,-11.451c-9.211,-5.85 -20.288,-7.468 -33.295,-4.916c-3.796,0.746 -7.468,1.804 -10.891,3.173c-2.24,0.81 -4.356,1.805 -6.41,2.863c-5.912,3.05 -11.202,7.033 -15.994,12.011c-5.29,5.415 -9.024,11.016 -11.326,16.865c-0.872,2.303 -1.494,4.606 -1.93,7.033c-0.248,1.244 -0.435,2.551 -0.497,3.858l0,6.037c0,-0.062 0.062,-0.062 0.124,-0.062c0.436,14.873 0.373,22.279 -0.124,22.092l0,81.837l20.661,0l-0.373,-1.68l0.062,-55.201l0,-48.231c1.182,0.436 2.365,0.872 3.672,1.245c-0.001,0 -0.001,0 0.062,0.062c2.427,0.623 4.916,1.058 7.53,1.307c0.809,0.062 1.618,0.125 2.427,0.187c0.685,0 1.369,0 2.116,0c3.423,-0.062 7.094,-0.436 10.891,-1.12c13.006,-2.614 24.084,-8.651 33.294,-18.11c3.423,-3.485 6.161,-7.032 8.34,-10.704c0.062,-0.062 0.062,-0.187 0.124,-0.311c0.062,-0.063 0.125,-0.187 0.187,-0.249c0.062,0.062 0.124,0.186 0.186,0.311c0,0.062 0,0.187 0.063,0.249c0.684,1.307 1.307,2.676 1.867,4.107c1.182,3.05 1.929,6.224 2.302,9.646c0.436,-2.427 0.685,-4.854 0.685,-7.281c0,-5.041 -0.996,-9.584 -2.987,-13.567Zm-80.53,23.773l0,-0.373l0.063,0.373l-0.063,0Zm0.063,4.979c0.124,0.062 0.248,0.186 0.311,0.248l-0.311,0l0,-0.248c-0.063,-0.063 -0.063,-0.063 -0.125,-0.125l0.125,-0.124l0,0.249Zm2.738,9.086c0.435,-0.063 0.871,-0.063 1.307,0l0,20.288c-0.436,0.062 -0.872,0.062 -1.307,0.062c-2.801,0 -5.228,-0.996 -7.219,-2.987c-1.992,-1.992 -2.987,-4.419 -2.987,-7.219c0,-2.801 0.995,-5.228 2.987,-7.219c1.991,-1.992 4.418,-2.988 7.219,-2.925Z" style="fill:#fecf05;fill-rule:nonzero;"/><path d="M122.721,223.153c-0.063,-0.062 -0.187,-0.186 -0.311,-0.248l0,0.248l0.311,0Z" style="fill:#8c5037;fill-rule:nonzero;"/><path d="M122.285,222.78c0.062,0.062 0.062,0.062 0.125,0.125l0,-0.249l-0.125,0.124Z" style="fill:#fff;fill-rule:nonzero;"/><path d="M126.455,231.991c-0.436,-0.063 -0.872,-0.063 -1.307,0c-2.801,-0.063 -5.228,0.933 -7.219,2.925c-1.992,1.991 -2.987,4.418 -2.987,7.219c0,2.8 0.995,5.227 2.987,7.219c1.991,1.991 4.418,2.987 7.219,2.987c0.435,0 0.871,0 1.307,-0.062l0,-20.288Z" style="fill:#fddbda;fill-rule:nonzero;"/><path d="M200.574,200.936c-0.062,0.125 -0.062,0.249 -0.124,0.311l0.311,-0.186l0.249,0.186c-0.062,-0.062 -0.062,-0.186 -0.062,-0.249c-0.063,-0.124 -0.125,-0.248 -0.187,-0.311c-0.062,0.063 -0.124,0.187 -0.187,0.249Z" style="fill:#c28362;fill-rule:nonzero;"/><path d="M201.01,201.247l-0.249,-0.186l-0.311,0.186c-2.178,3.672 -4.917,7.219 -8.339,10.705c-9.211,9.459 -20.288,15.496 -33.295,18.109c-3.796,0.685 -7.468,1.058 -10.891,1.121c-0.747,0 -1.431,0 -2.116,0c-0.809,-0.063 -1.618,-0.125 -2.427,-0.187c-2.614,-0.249 -5.103,-0.685 -7.53,-1.307l-0.062,0l0,-0.062c-1.307,-0.374 -2.49,-0.809 -3.672,-1.245l0,48.231c0.435,0.311 0.933,0.622 1.431,0.933c3.796,2.179 7.841,3.797 12.26,4.855l0,9.272l30.494,0.623l-0.062,-9.335c4.418,-0.996 8.464,-2.614 12.26,-4.855c1.805,-1.057 3.485,-2.302 5.165,-3.609c0.436,-0.373 0.934,-0.747 1.369,-1.12c0.311,-0.311 0.685,-0.622 0.996,-0.934c0.871,-0.809 1.68,-1.68 2.427,-2.551c4.668,-5.414 7.032,-11.638 7.032,-18.67l-0.124,-29.685l0.062,0c0,-0.436 0,-0.872 0.062,-1.307c0,-1.805 -0.124,-3.547 -0.311,-5.228c-0.373,-3.422 -1.12,-6.596 -2.302,-9.646c-0.56,-1.431 -1.183,-2.8 -1.867,-4.107l0,-0.001Z" style="fill:#fddbda;fill-rule:nonzero;"/><path d="M198.458,269.891c-0.746,0.871 -1.555,1.742 -2.427,2.551c-0.311,0.311 -0.684,0.622 -0.995,0.934c-0.436,0.373 -0.934,0.746 -1.37,1.12c-1.68,1.307 -3.36,2.551 -5.165,3.609c-3.796,2.241 -7.841,3.859 -12.26,4.855l0.062,9.335l0,4.107c3.174,1.431 6.099,3.423 8.775,6.099c4.232,4.169 6.97,8.899 8.277,14.313c0.498,2.179 0.747,4.543 0.747,6.971l0,7.156c0.062,0.063 0.187,0.125 0.249,0.187c0.56,0.436 1.058,0.871 1.556,1.431c0.747,0.747 1.431,1.494 1.991,2.303l0.56,0l0,-3.734l0,-61.237Z" style="fill:#fdaf17;fill-rule:nonzero;"/><path d="M215.448,332.559c0.56,-0.56 1.058,-0.995 1.618,-1.431l-18.608,0l0,3.734l-0.373,0.187c1.991,2.925 3.049,6.223 3.112,9.957l0,0.871l9.023,0c-0.062,-0.186 -0.062,-0.373 0,-0.56c-0.062,-0.124 -0.062,-0.249 0,-0.311c0.063,-4.854 1.805,-9.024 5.228,-12.447Z" style="fill:#f06eaa;fill-rule:nonzero;"/><path d="M217.066,331.128c-0.56,0.436 -1.058,0.871 -1.618,1.431c-3.423,3.423 -5.165,7.593 -5.228,12.447c-0.062,0.062 -0.062,0.187 0,0.311c-0.062,0.187 -0.062,0.374 0,0.56l35.971,0c0,-0.186 0,-0.373 0.062,-0.56c0,-0.124 0,-0.249 0,-0.311c-0.062,-4.854 -1.867,-9.024 -5.289,-12.447c-0.56,-0.56 -1.183,-1.12 -1.743,-1.555c-0.249,-0.187 -0.498,-0.312 -0.684,-0.498c-1.992,-1.432 -4.17,-2.365 -6.473,-2.801l-4.481,-0.373c-3.609,0.062 -6.845,1.12 -9.646,3.174c-0.311,0.187 -0.56,0.435 -0.871,0.622Z" style="fill:#f7aca7;fill-rule:nonzero;"/><path d="M193.355,316.814c-1.307,-5.414 -4.045,-10.144 -8.277,-14.313c-2.676,-2.676 -5.601,-4.668 -8.775,-6.099l0,-4.107l-30.494,-0.623l-1.68,0c0,13.629 0,27.321 0,41.012l-11.7,0.809l-5.414,0l0,27.507l40.7,0l-0.062,-15.123l-2.489,0l0,-0.871c0.062,-3.298 0.933,-6.223 2.489,-8.837l-0.125,-36.904c0,-0.249 0.063,-0.498 0.187,-0.685c-0.062,-0.062 -0.062,-0.124 -0.062,-0.186c0,-0.498 0.124,-0.934 0.311,-1.307l0,0.995c0.062,-0.062 0.062,-0.062 0.124,-0.124c0.374,-0.373 0.809,-0.56 1.307,-0.56c0.498,0 0.934,0.187 1.307,0.56c0.374,0.374 0.56,0.809 0.56,1.307l0.125,32.423c0.186,-0.186 0.435,-0.373 0.684,-0.56c2.241,-1.742 5.041,-2.987 8.339,-3.796c0.436,-0.062 1.37,-0.062 2.801,0c2.551,-0.062 4.979,0.436 7.219,1.432c1.307,0.56 2.489,1.244 3.672,2.178l0,-7.157c0,-2.427 -0.249,-4.792 -0.747,-6.97l0,-0.001Z" style="fill:#f06eaa;fill-rule:nonzero;"/><path d="M167.653,298.393c0,0.063 0,0.125 0.062,0.187c-0.124,0.187 -0.187,0.436 -0.187,0.685l0.125,36.904c0.747,-1.307 1.68,-2.489 2.8,-3.61c0.312,-0.311 0.623,-0.56 0.934,-0.871l-0.125,-32.423c0,-0.498 -0.186,-0.934 -0.56,-1.307c-0.373,-0.374 -0.809,-0.56 -1.307,-0.56c-0.498,0 -0.933,0.186 -1.307,0.56c-0.062,0.062 -0.062,0.062 -0.124,0.124l0,-0.995c-0.187,0.373 -0.311,0.809 -0.311,1.307l0,-0.001Z" style="fill:#cd5e91;fill-rule:nonzero;"/><path d="M180.411,327.332c-3.298,0.809 -6.099,2.053 -8.339,3.796c-0.249,0.187 -0.498,0.373 -0.685,0.56c-0.311,0.311 -0.622,0.56 -0.934,0.871c-1.12,1.121 -2.053,2.303 -2.8,3.61c-1.556,2.614 -2.427,5.539 -2.489,8.837l0,0.871l36.032,0l0,-0.871c-0.062,-3.734 -1.12,-7.032 -3.111,-9.957c-0.062,-0.062 -0.125,-0.125 -0.187,-0.187c-0.56,-0.809 -1.245,-1.556 -1.991,-2.303c-0.498,-0.56 -0.996,-0.995 -1.556,-1.431c-0.062,-0.062 -0.187,-0.124 -0.249,-0.187c-1.183,-0.933 -2.365,-1.618 -3.672,-2.178c-2.24,-0.995 -4.667,-1.493 -7.219,-1.431c-1.431,-0.062 -2.365,-0.062 -2.8,0Z" style="fill:#fddbda;fill-rule:nonzero;"/><path d="M171.387,345.877l-3.734,0l0.062,15.123l3.734,0l-0.062,-15.123Z" style="fill:#cd5e91;fill-rule:nonzero;"/><path d="M194.227,345.877l-22.84,0l0.062,15.123l22.778,0l0,-15.123Z" style="fill:#f06eaa;fill-rule:nonzero;"/><path d="M135.852,229.688l-0.062,-0.062l0,0.062l0.062,0Z" style="fill:#c28362;fill-rule:nonzero;"/><path d="M133.549,277.545c-0.498,-0.311 -0.995,-0.622 -1.431,-0.933l-0.062,55.201l0.373,1.68l11.7,-0.809c0,-13.691 0,-27.383 0,-41.012l1.68,0l0,-9.272c-4.418,-1.058 -8.464,-2.676 -12.26,-4.855Z" style="fill:#fdaf17;fill-rule:nonzero;"/><path d="M205.491,231.991l0,20.288c2.302,-0.249 4.294,-1.245 5.974,-2.925c0.685,-0.685 1.245,-1.432 1.743,-2.179c0.809,-1.493 1.244,-3.173 1.244,-5.04c-0.062,-2.801 -1.058,-5.228 -2.987,-7.219c-1.68,-1.681 -3.672,-2.676 -5.974,-2.925Z" style="fill:#f7aca7;fill-rule:nonzero;"/><path d="M263.396,255.122l-8.17,0c-1.381,0.287 -2.646,0.748 -3.797,1.496c-2.819,1.726 -5.006,4.833 -6.559,9.32l-17.951,75.831c-0.173,0.633 -0.057,1.266 0.23,1.841c0.288,0.633 0.748,1.036 1.266,1.209c0.058,0.057 0.115,0.057 0.173,0.057l0.517,0c0.173,-0.057 0.403,-0.115 0.633,-0.23c0.115,0.058 0.23,0.115 0.403,0.173c0.058,0.057 0.115,0.057 0.173,0.057l0.517,0c0.288,-0.057 0.518,-0.172 0.806,-0.345c0.518,-0.288 0.92,-0.748 1.093,-1.381l18.008,-76.234c2.474,-7.709 6.732,-11.622 12.658,-11.794Z" style="fill:#737375;fill-rule:nonzero;"/><path d="M336.753,255.122l-73.357,0c-5.926,0.172 -10.183,4.085 -12.657,11.794l-18.009,76.234c-0.172,0.633 -0.575,1.093 -1.093,1.381c-0.288,0.173 -0.518,0.288 -0.805,0.345l91.077,0c0.863,0 1.669,0.173 2.417,0.576c0,-0.231 0,-0.461 0.057,-0.691l19.562,-82.505c0.461,-4.545 -1.956,-6.904 -7.192,-7.134Zm-38.893,38.26c-1.439,1.209 -3.165,1.842 -5.178,1.842c-2.014,0 -3.74,-0.633 -5.179,-1.842c-1.438,-1.265 -2.186,-2.819 -2.186,-4.602c0,-1.784 0.748,-3.222 2.187,-4.431c1.438,-1.265 3.164,-1.898 5.178,-1.898c2.013,0 3.739,0.633 5.178,1.898c1.438,1.209 2.129,2.647 2.129,4.431c0,1.783 -0.691,3.337 -2.129,4.603l0,-0.001Z" style="fill:#24234d;fill-rule:nonzero;"/><path d="M292.682,295.224c2.013,0 3.739,-0.633 5.178,-1.842c1.438,-1.265 2.129,-2.819 2.129,-4.602c0,-1.784 -0.691,-3.222 -2.129,-4.431c-1.439,-1.265 -3.165,-1.898 -5.178,-1.898c-2.014,0 -3.74,0.633 -5.179,1.898c-1.438,1.209 -2.186,2.647 -2.186,4.431c0,1.783 0.748,3.337 2.187,4.603c1.438,1.208 3.164,1.841 5.178,1.841Z" style="fill:#ccc;fill-rule:nonzero;"/><path d="M326.742,358.8c1.324,-1.554 1.956,-3.452 1.956,-5.696l0,-0.115c0.058,-2.014 -0.517,-3.798 -1.611,-5.236c-0.115,-0.173 -0.23,-0.345 -0.345,-0.518c-0.748,-0.863 -1.553,-1.438 -2.416,-1.783c-0.748,-0.403 -1.554,-0.576 -2.417,-0.576l-91.078,0l-0.517,0l-1.209,0l-0.518,0l-4.257,0c-0.575,0 -1.151,0 -1.669,0.058c1.496,0.23 2.82,0.978 3.97,2.301c1.324,1.554 1.956,3.51 1.956,5.754l0,0.115c0,2.244 -0.632,4.142 -1.956,5.696c-0.978,1.093 -2.071,1.783 -3.279,2.128l100.111,0c1.208,-0.287 2.301,-1.035 3.279,-2.128Z" style="fill:#160f42;fill-rule:nonzero;"/><path d="M146.945,344.876c-1.898,0 -3.509,0.806 -4.832,2.359c-1.324,1.554 -1.957,3.51 -1.957,5.754l0,0.115c0,2.244 0.633,4.142 1.957,5.696c0.978,1.093 2.071,1.841 3.279,2.128l77.96,0c1.208,-0.345 2.301,-1.035 3.279,-2.128c1.324,-1.554 1.957,-3.452 1.957,-5.696l0,-0.115c0,-2.244 -0.633,-4.2 -1.957,-5.754c-1.15,-1.323 -2.474,-2.071 -3.969,-2.301c-0.288,-0.058 -0.518,-0.058 -0.806,-0.058c-0.057,0 -0.057,0 -0.115,0l-74.796,0Z" style="fill:#737375;fill-rule:nonzero;"/><path d="M229.105,344.876l1.209,0c-0.058,0 -0.115,0 -0.173,-0.057c-0.173,-0.058 -0.288,-0.115 -0.403,-0.173c-0.23,0.115 -0.46,0.173 -0.633,0.23Z" style="fill:#24234d;fill-rule:nonzero;"/><path d="M165.172,241.052c0.262,-0.675 0.637,-1.274 1.162,-1.799c0.974,-0.937 2.136,-1.424 3.486,-1.424c1.349,0 2.511,0.487 3.448,1.424c0.562,0.525 0.937,1.124 1.162,1.799" style="fill:none;stroke:#8c5037;stroke-width:2.25px;"/><path d="M182.115,241.052c0.263,-0.675 0.637,-1.274 1.162,-1.799c0.975,-0.937 2.137,-1.424 3.486,-1.424c1.349,0 2.511,0.487 3.448,1.424c0.563,0.525 0.938,1.124 1.162,1.799" style="fill:none;stroke:#8c5037;stroke-width:2.25px;"/><path d="M172.357,248.551c0.319,0.821 0.775,1.551 1.413,2.189c1.186,1.14 2.599,1.733 4.241,1.733c1.642,0 3.055,-0.593 4.195,-1.733c0.684,-0.638 1.14,-1.368 1.414,-2.189" style="fill:none;stroke:#e78c76;stroke-width:2.74px;"/></g><g id="Male-1"><path d="M376.725,54.553l-5.248,0c-3.999,0 -7.397,1.499 -10.196,4.448c-2.799,2.999 -4.199,6.597 -4.149,10.845c-0.05,4.199 1.35,7.797 4.149,10.746c0.65,0.65 1.299,1.25 1.999,1.799c0.55,-1.049 1.249,-1.999 2.149,-2.848c2.149,-2.15 4.698,-3.349 7.647,-3.499l0,-0.95c0.25,-11.995 6.248,-18.192 17.943,-18.592l58.726,0c0.75,-0.05 1.45,-0.15 2.15,-0.2c2.798,-0.35 5.397,-0.9 7.796,-1.649c2.399,4.948 3.599,10.396 3.649,16.243l0,4.648c2.599,0.3 4.848,1.45 6.797,3.399c1.05,1 1.85,2.099 2.449,3.299c0.6,-0.5 1.2,-1.05 1.8,-1.65c2.749,-2.948 4.148,-6.547 4.148,-10.745c0,-4.249 -1.399,-7.847 -4.148,-10.846c-2.849,-2.949 -6.248,-4.448 -10.196,-4.448l-4.299,0c11.846,-3.899 18.543,-13.345 20.042,-28.289l-75.07,0c-14.694,0.7 -23.69,7.997 -27.039,21.891c-0.5,2 -0.849,4.149 -1.099,6.398l0,0.05l0,-0.05Zm-0.85,1.949l-0.1,0l0.05,0c0.05,-0.05 0.05,-0.05 0.05,0Z" style="fill:#422311;fill-rule:nonzero;"/><path d="M373.076,75.094l0,37.635l17.543,0c0.3,-2.848 1.499,-5.347 3.599,-7.447c2.499,-2.499 5.497,-3.748 9.046,-3.748l9.046,0l0,-1.549c-0.05,-1.45 0.5,-2.699 1.55,-3.749c1.049,-1.05 2.249,-1.549 3.698,-1.549c1.45,0 2.699,0.499 3.749,1.549c1.049,1.05 1.549,2.299 1.549,3.749l0,1.549l9.646,0c3.549,0 6.548,1.249 9.047,3.748c2.099,2.1 3.298,4.599 3.648,7.447l18.143,0l0,-8.596l0,-4.548l0,-24.041l0,-4.648c-0.05,-5.847 -1.25,-11.295 -3.649,-16.243c-2.399,0.749 -4.998,1.299 -7.796,1.649c-0.7,0.05 -1.4,0.15 -2.15,0.2l-58.726,0c-11.695,0.4 -17.693,6.597 -17.943,18.593l0,-0.001Zm33.437,21.892c-0.55,0.499 -1.2,0.749 -1.95,0.699c-0.749,-0.05 -1.349,-0.35 -1.799,-0.899c-0.5,-0.55 -0.75,-1.2 -0.7,-2c0,-0.699 0.25,-1.299 0.8,-1.749c0.55,-0.5 1.2,-0.75 1.949,-0.75c0.75,0.05 1.4,0.35 1.9,0.9c0.499,0.55 0.749,1.2 0.699,1.999c-0.05,0.7 -0.35,1.3 -0.899,1.8Zm25.09,-3.199c0.499,0.55 0.749,1.199 0.699,1.999c-0.05,0.75 -0.3,1.35 -0.849,1.799c-0.6,0.5 -1.3,0.75 -2.049,0.7c-0.75,0 -1.3,-0.3 -1.75,-0.85c-0.499,-0.549 -0.749,-1.199 -0.699,-1.999c0.05,-0.749 0.299,-1.349 0.849,-1.799c0.55,-0.5 1.15,-0.75 1.899,-0.75c0.75,0.05 1.4,0.35 1.9,0.9Z" style="fill:#e3ba8e;fill-rule:nonzero;"/><path d="M404.563,97.685c0.75,0.05 1.4,-0.2 1.95,-0.699c0.549,-0.5 0.849,-1.1 0.899,-1.8c0.05,-0.799 -0.2,-1.449 -0.699,-1.999c-0.5,-0.55 -1.15,-0.85 -1.9,-0.9c-0.749,0 -1.399,0.25 -1.949,0.75c-0.55,0.45 -0.8,1.05 -0.8,1.749c-0.049,0.8 0.2,1.45 0.7,2c0.45,0.549 1.05,0.849 1.799,0.899Z" style="fill-rule:nonzero;"/><path d="M432.302,95.786c0.05,-0.8 -0.2,-1.449 -0.699,-1.999c-0.5,-0.55 -1.15,-0.85 -1.9,-0.9c-0.749,0 -1.349,0.25 -1.899,0.75c-0.55,0.45 -0.8,1.05 -0.85,1.799c-0.05,0.8 0.2,1.45 0.7,1.999c0.45,0.55 1,0.85 1.749,0.85c0.75,0.05 1.45,-0.2 2.05,-0.7c0.549,-0.449 0.799,-1.049 0.849,-1.799Z" style="fill-rule:nonzero;"/><path d="M373.076,76.044c-2.949,0.15 -5.498,1.349 -7.647,3.499c-0.9,0.849 -1.599,1.799 -2.149,2.848l-0.05,0.05c-0.9,1.7 -1.349,3.599 -1.349,5.698c0,3.349 1.199,6.248 3.548,8.647c2.149,2.149 4.698,3.299 7.647,3.498l0,-24.24Z" style="fill:#ce9965;fill-rule:nonzero;"/><path d="M361.88,88.139c0,-2.099 0.45,-3.998 1.35,-5.698l-12.245,0c0.55,4.249 1.599,7.847 3.248,10.846c3.599,6.697 9.897,10.346 18.843,10.946l0,-3.949c-2.949,-0.2 -5.498,-1.349 -7.647,-3.498c-2.349,-2.399 -3.549,-5.298 -3.549,-8.647Z" style="fill:#422311;fill-rule:nonzero;"/><path d="M390.619,112.729l-17.543,0l0,19.443c0,7.247 1.799,13.844 5.448,19.692c0.949,1.549 2.099,3.098 3.349,4.548c1.249,1.449 2.598,2.899 4.098,4.248c1.899,1.749 3.898,3.349 5.998,4.698c3.148,2.049 6.547,3.649 10.095,4.848c0.3,0.1 0.6,0.2 0.95,0.3c4.448,1.35 9.246,1.999 14.294,1.999l3.549,0c4.848,-0.15 9.446,-0.999 13.744,-2.449c1.25,-0.449 2.499,-0.899 3.749,-1.449c3.149,-1.399 6.098,-3.149 8.846,-5.298c1.05,-0.849 2.1,-1.699 3.149,-2.649c3.049,-2.749 5.548,-5.647 7.497,-8.796c3.649,-5.848 5.448,-12.445 5.498,-19.692l0,-19.443l-18.143,0c-0.35,-2.848 -1.549,-5.347 -3.648,-7.447c-2.499,-2.499 -5.498,-3.748 -9.047,-3.748l-9.646,0l0,5.898c0,1.449 -0.5,2.698 -1.549,3.748c-1,1 -2.199,1.499 -3.599,1.549l-0.25,0c-1.399,-0.05 -2.599,-0.549 -3.598,-1.549c-1.05,-1.05 -1.6,-2.299 -1.55,-3.748l0,-5.898l-9.046,0c-3.549,0 -6.547,1.249 -9.046,3.748c-2.099,2.1 -3.299,4.599 -3.599,7.447Zm44.832,5.698c-0.45,3.898 -2.149,7.297 -5.048,10.196c-3.499,3.449 -7.697,5.198 -12.595,5.198c-4.898,0 -9.096,-1.749 -12.545,-5.198c-2.949,-2.899 -4.648,-6.297 -5.098,-10.196l35.286,0Z" style="fill:#422311;fill-rule:nonzero;"/><path d="M430.403,128.623c2.899,-2.899 4.598,-6.297 5.048,-10.196l-35.286,0c0.45,3.899 2.149,7.297 5.098,10.196c3.449,3.449 7.647,5.198 12.545,5.198c4.898,0 9.096,-1.749 12.595,-5.198Z" style="fill:#fff;fill-rule:nonzero;"/><path d="M470.137,78.943c-1.949,-1.949 -4.198,-3.099 -6.797,-3.399l0,24.041c2.599,-0.35 4.848,-1.5 6.797,-3.449c2.349,-2.349 3.549,-5.248 3.599,-8.597c-0.05,-1.849 -0.4,-3.548 -1.1,-5.098c-0.05,-0.049 -0.05,-0.149 -0.05,-0.199c-0.6,-1.2 -1.399,-2.299 -2.449,-3.299Z" style="fill:#ce9965;fill-rule:nonzero;"/><path d="M470.137,96.136c-1.949,1.949 -4.198,3.099 -6.797,3.449l0,4.548c12.495,-1.1 19.592,-8.347 21.341,-21.692l-12.045,0.001c0.7,1.549 1.05,3.248 1.1,5.097c-0.05,3.349 -1.25,6.248 -3.599,8.597Z" style="fill:#422311;fill-rule:nonzero;"/><path d="M412.31,99.984l0,7.447c-0.05,1.45 0.5,2.699 1.55,3.749c0.999,1 2.199,1.499 3.598,1.549l0.25,0c1.4,-0.05 2.599,-0.549 3.599,-1.549c1.049,-1.05 1.549,-2.299 1.549,-3.748l0,-5.898l0,-1.549c0,-1.45 -0.5,-2.699 -1.549,-3.749c-1.05,-1.05 -2.299,-1.549 -3.749,-1.549c-1.449,0 -2.649,0.499 -3.698,1.549c-1.05,1.05 -1.6,2.299 -1.55,3.749l0,-0.001Z" style="fill:#ea9885;fill-rule:nonzero;"/><path d="M442.298,177.653c1.15,-0.549 2.399,-0.899 3.749,-0.999l-11.446,0l-0.199,12.395l-0.1,0.25c-0.2,0.949 -0.25,1.299 -0.15,1.149c0,-0.05 0,-0.1 0,-0.15c0.05,-0.1 0.05,-0.15 0.1,-0.2c0.05,-0.199 0.1,-0.399 0.15,-0.599c0,-0.1 0,-0.2 0.05,-0.3l0.149,-1.05l0,0.55c0,-0.1 0,-0.2 0.05,-0.25c0.05,-0.2 0.1,-0.45 0.15,-0.7l0.1,-0.05c2.249,-5.447 4.698,-8.796 7.397,-10.046Z" style="fill:#7a9801;fill-rule:nonzero;"/><path d="M446.047,176.654c-1.35,0.1 -2.599,0.45 -3.749,0.999c-2.699,1.25 -5.148,4.599 -7.397,10.046c-0.05,0.15 -0.1,0.25 -0.1,0.4c-0.05,0.05 -0.05,0.15 -0.1,0.25c-0.05,0.05 -0.05,0.05 -0.05,0.1c-0.05,0.05 -0.05,0.15 -0.05,0.25l0,0.1l-0.05,0c-0.049,0.25 -0.099,0.45 -0.149,0.7c-0.05,0.2 -0.1,0.4 -0.15,0.6c-0.05,0.15 -0.05,0.249 -0.1,0.399c-0.05,0.25 -0.1,0.5 -0.15,0.8l0.05,-0.45c-0.05,0.25 -0.1,0.45 -0.15,0.7l-2.749,10.196l-11.646,42.933c1.15,0.15 2.1,0.65 2.949,1.499c1,1 1.5,2.199 1.5,3.599l0,8.696c0,1.4 -0.5,2.599 -1.5,3.599c-1.049,1 -2.249,1.499 -3.648,1.549c-1.4,-0.05 -2.599,-0.549 -3.599,-1.549c-1.049,-1 -1.549,-2.199 -1.549,-3.599l0,-8.696c0,-1.4 0.5,-2.599 1.549,-3.599c0.8,-0.849 1.749,-1.349 2.849,-1.499l-11.645,-42.933l-2.749,-10.196c-0.2,-0.949 -0.4,-1.899 -0.65,-2.749c-0.15,-0.399 -0.25,-0.749 -0.35,-1.099c-1.749,-5.648 -4.598,-9.146 -8.446,-10.496l-5.498,-0.55l-6.698,0l0,11.146l-4.698,0l0,0.6c0.15,0 0.35,0 0.55,0l0,148.59l79.568,0l0,-66.873l0,-82.167c0.15,0 0.3,0 0.45,0l0,-0.15l-2.349,0l0,-11.146l-9.496,0Zm-11.246,136.695c0,-0.55 0.2,-1.05 0.6,-1.449c0.4,-0.4 0.85,-0.6 1.399,-0.55l14.445,0c0.549,-0.05 0.999,0.15 1.399,0.55c0.4,0.4 0.6,0.899 0.6,1.449l0,0.05c0,0.55 -0.2,1 -0.6,1.4c-0.4,0.399 -0.85,0.599 -1.399,0.599l-14.445,0c-0.549,0 -0.999,-0.2 -1.399,-0.599c-0.4,-0.4 -0.6,-0.85 -0.6,-1.4l0,-0.05Zm-35.036,-1.999c0.55,-0.05 1,0.15 1.4,0.55c0.4,0.399 0.599,0.899 0.599,1.449l0,0.05c0,0.55 -0.199,1 -0.599,1.399c-0.4,0.4 -0.85,0.6 -1.4,0.6l-14.444,0c-0.55,0 -1,-0.2 -1.349,-0.6c-0.45,-0.399 -0.65,-0.849 -0.65,-1.399l0,-0.05c0,-0.55 0.2,-1.049 0.65,-1.449c0.349,-0.4 0.799,-0.6 1.349,-0.55l14.444,0Zm44.283,15.943l-0.2,0l0,-0.199l0.2,0.199Zm4.548,-4.648l0.2,0.15c0.05,0.05 -0.05,0.1 -0.2,0.2l0,-0.35Z" style="fill:#9c0;fill-rule:nonzero;"/><path d="M435.401,311.9c-0.4,0.399 -0.6,0.899 -0.6,1.449l0,0.05c0,0.55 0.2,1 0.6,1.399c0.4,0.4 0.85,0.6 1.399,0.6l14.445,0c0.549,0 0.999,-0.2 1.399,-0.6c0.4,-0.399 0.6,-0.849 0.6,-1.399l0,-0.05c0,-0.55 -0.2,-1.049 -0.6,-1.449c-0.4,-0.4 -0.85,-0.6 -1.399,-0.55l-14.445,0c-0.549,-0.05 -0.999,0.15 -1.399,0.55Z" style="fill:#7a9801;fill-rule:nonzero;"/><path d="M401.165,311.9c-0.4,-0.4 -0.85,-0.6 -1.4,-0.55l-14.444,0c-0.55,-0.05 -0.999,0.15 -1.349,0.55c-0.45,0.4 -0.65,0.899 -0.65,1.449l0,0.05c0,0.55 0.2,1 0.65,1.4c0.35,0.399 0.799,0.599 1.349,0.599l14.444,0c0.55,0 1,-0.2 1.4,-0.599c0.4,-0.4 0.6,-0.85 0.6,-1.4l0,-0.05c0,-0.55 -0.2,-1.049 -0.6,-1.449Z" style="fill:#7a9801;fill-rule:nonzero;"/><path d="M448.796,322.795l-0.2,-0.15l0,0.35c0.15,-0.1 0.25,-0.15 0.2,-0.2Z" style="fill:#7a9801;fill-rule:nonzero;"/><path d="M457.892,187.949c-0.15,0 -0.3,0 -0.45,0l0,82.167l14.494,0l0,-67.523c0,-9.546 -4.648,-14.444 -13.994,-14.644l-0.05,0Z" style="fill:#7a9801;fill-rule:nonzero;"/><path d="M419.507,172.505c-0.15,0 -0.249,0 -0.349,0l-1.85,0c-5.048,0 -9.846,-0.649 -14.294,-1.999l0,18.293c0.25,0.85 0.45,1.799 0.65,2.749l2.749,10.196l24.74,0l2.749,-10.196c0.05,-0.25 0.1,-0.45 0.15,-0.7c0.05,-0.15 0.05,-0.25 0.1,-0.35l0,-0.05c-0.1,0.15 -0.05,-0.2 0.15,-1.149l0.1,-0.25l0.199,-12.395l0,-6.597c-4.298,1.449 -8.896,2.299 -13.744,2.449c-0.45,0 -0.9,0 -1.349,0l-0.001,-0.001Z" style="fill:#ce9965;fill-rule:nonzero;"/><path d="M402.664,187.699c0.1,0.35 0.2,0.7 0.35,1.1l0,-12.145l-14.294,0l5.498,0.55c3.848,1.349 6.697,4.848 8.446,10.495Z" style="fill:#7a9801;fill-rule:nonzero;"/><path d="M434.901,187.699l-0.1,0.05c-0.05,0.25 -0.1,0.5 -0.15,0.7c0,-0.05 0,-0.05 0.05,-0.1c0.05,-0.1 0.05,-0.2 0.1,-0.25c0,-0.15 0.05,-0.25 0.1,-0.4Z" style="fill:#d8a379;fill-rule:nonzero;"/><path d="M434.601,188.699l0,-0.55l-0.15,1.05c-0.049,0.1 -0.049,0.2 -0.049,0.3c0.05,-0.25 0.1,-0.45 0.149,-0.7c0,-0.05 0,-0.05 0.05,-0.1Z" style="fill:#ce9965;fill-rule:nonzero;"/><path d="M434.052,190.848l-0.05,0.45c0.05,-0.3 0.1,-0.55 0.15,-0.8c-0.05,0.1 -0.05,0.2 -0.1,0.35Z" style="fill:#7a9801;fill-rule:nonzero;"/><path d="M431.153,201.744l-24.74,0l11.645,42.932c0.25,-0.049 0.5,-0.049 0.75,-0.049c0.25,0 0.45,0 0.699,0.049l11.646,-42.932Z" style="fill:#fff;fill-rule:nonzero;"/><path d="M415.209,246.176c-1.049,1 -1.549,2.199 -1.549,3.598l0,8.697c0,1.399 0.5,2.599 1.549,3.599c1,0.999 2.199,1.499 3.599,1.549c1.399,-0.05 2.599,-0.55 3.648,-1.549c1,-1 1.5,-2.2 1.5,-3.599l0,-8.696c0,-1.4 -0.5,-2.599 -1.5,-3.599c-0.849,-0.85 -1.799,-1.349 -2.949,-1.499c-0.249,-0.05 -0.449,-0.05 -0.699,-0.05c-0.25,0 -0.5,0 -0.75,0.05c-1.1,0.15 -2.049,0.649 -2.849,1.499Zm1.2,3.848c-0.05,-0.699 0.2,-1.249 0.649,-1.699c0.45,-0.5 1.05,-0.75 1.75,-0.7c0.699,-0.05 1.299,0.2 1.749,0.7c0.45,0.45 0.7,1 0.7,1.699c0,0.7 -0.25,1.3 -0.7,1.75c-0.45,0.45 -1.05,0.699 -1.749,0.699c-0.7,0.001 -1.3,-0.249 -1.75,-0.699c-0.45,-0.45 -0.699,-1.05 -0.649,-1.749l0,-0.001Z" style="fill:#666;fill-rule:nonzero;"/><path d="M417.058,248.325c-0.449,0.45 -0.699,1 -0.649,1.699c-0.05,0.7 0.2,1.3 0.649,1.75c0.45,0.45 1.05,0.699 1.75,0.699c0.699,0 1.299,-0.249 1.749,-0.699c0.45,-0.45 0.7,-1.05 0.7,-1.75c0,-0.699 -0.25,-1.249 -0.7,-1.699c-0.45,-0.5 -1.05,-0.75 -1.749,-0.7c-0.7,-0.05 -1.3,0.2 -1.75,0.7Z" style="fill:#9c0;fill-rule:nonzero;"/><path d="M471.936,270.116l-14.494,0l0,98.711l-1.499,0c-3.599,0.55 -6.298,3.149 -8.047,7.847l0.7,-0.75l-0.8,0.9c-0.05,0.15 -0.05,0.3 -0.1,0.45l-0.05,0.1c-0.15,0.349 -0.3,0.699 -0.4,1.099c-0.05,0.2 -0.1,0.4 -0.15,0.6c-0.1,0.4 -0.15,0.85 -0.15,1.299l0,12.595l0.3,0c-0.15,0.1 -0.25,0.2 -0.3,0.25l-0.049,6.498c0.05,1.549 0.599,2.849 1.699,3.898c0.999,1.05 2.249,1.599 3.798,1.599l0.15,0c1.55,0 2.849,-0.549 3.949,-1.599c0.999,-1.049 1.499,-2.349 1.549,-3.898c0.05,1.399 0.6,2.599 1.649,3.548c1,1.05 2.25,1.6 3.799,1.6l0.15,0c1.549,0 2.849,-0.55 3.948,-1.6c0.9,-0.949 1.4,-2.049 1.5,-3.398c-0.05,-0.15 -0.05,-0.25 -0.1,-0.4c0.05,-0.05 0.1,-0.1 0.15,-0.1c0,0.15 0,0.35 -0.05,0.5c0.25,1.049 0.749,1.999 1.549,2.749c1,1.099 2.249,1.649 3.799,1.649l0.149,0c1.55,0 2.849,-0.55 3.949,-1.649c0.999,-1.05 1.499,-2.299 1.499,-3.849l0,-19.342l0,-0.65c-0.3,-1.449 -0.599,-2.899 -0.899,-4.348c-1.25,-2.799 -3.649,-4.598 -7.197,-5.448l0,-98.86l-0.001,-0.001Zm-2.948,109.956l0,-0.649c0,-0.1 0,-0.2 0,-0.35c0.05,0.3 0.1,0.6 0.1,0.949l-0.1,0.05Z" style="fill:#e3ba8e;fill-rule:nonzero;"/><path d="M413.66,351.334l9.696,0l0,212.315l13.295,0l0,-0.15l0,-169.582c-0.55,-0.85 -0.8,-1.849 -0.75,-2.899c-0.05,-1.099 0.2,-2.099 0.75,-2.949l0,-36.735l7.846,0l0,-8.047l-53.728,0l0,5.798l0.65,2.249l8.946,0l0,212.315l13.295,0l0,-0.15l0,-212.165Z" style="fill:#026495;fill-rule:nonzero;"/><path d="M444.497,343.287l12.945,0l0,-6.297l-79.568,0l0,6.297l66.623,0Z" style="fill:#7a9801;fill-rule:nonzero;"/><path d="M377.874,188.399c-0.2,0 -0.4,0 -0.55,0c-9.346,0.2 -13.994,5.048 -13.944,14.594l0,67.573l14.494,0l0,-82.167Z" style="fill:#7a9801;fill-rule:nonzero;"/><path d="M377.874,270.566l-14.494,0l0,98.811c-3.649,0.849 -6.048,2.649 -7.247,5.448c-0.35,1.449 -0.65,2.898 -0.9,4.348l0,19.992c0,1.549 0.5,2.799 1.5,3.848c1.099,1.1 2.449,1.65 3.998,1.65l0.1,0c1.499,0 2.749,-0.55 3.798,-1.65c0.8,-0.749 1.3,-1.649 1.55,-2.699c-0.05,-0.15 -0.05,-0.349 0,-0.499c0.05,0 0.05,0 0.1,0.05c-0.05,0.15 -0.05,0.299 -0.1,0.449c0.1,1.3 0.6,2.399 1.549,3.349c1.05,1.05 2.349,1.599 3.899,1.599l0.2,0c1.499,0 2.748,-0.549 3.748,-1.599c1,-0.949 1.549,-2.149 1.649,-3.498c0,1.549 0.55,2.798 1.6,3.848c1.049,1.05 2.399,1.599 3.948,1.599l0.1,0c1.5,0 2.749,-0.549 3.799,-1.599c1.099,-1.05 1.649,-2.299 1.699,-3.848l-0.05,-6.498c-0.1,-0.1 -0.2,-0.2 -0.3,-0.3l0.3,0l0,-12.595c0,-0.449 -0.05,-0.899 -0.15,-1.299c-0.05,-0.2 -0.1,-0.4 -0.15,-0.55c-0.15,-0.4 -0.25,-0.799 -0.4,-1.149l-0.05,-0.1c-0.05,-0.15 -0.05,-0.3 -0.1,-0.4l-0.799,-0.95l0.699,0.75c-1.749,-4.648 -4.448,-7.247 -8.046,-7.797l-1.45,0l0,-25.989l0,-6.298l0,-66.423l0,-0.001Zm-11.595,109.906l-0.1,-0.05c0,-0.35 0.05,-0.65 0.1,-0.949l0,0.999Z" style="fill:#e3ba8e;fill-rule:nonzero;"/><path d="M460.241,187.949l0,-0.15l-1.749,0c0.6,0.05 1.199,0.1 1.749,0.15Z" style="fill:#9c0;fill-rule:nonzero;"/></g><path d="M553.823,195l6.735,0l0,6.676l6.207,0l0,-6.676l6.735,0l0,20.204l-6.735,0l0,-6.735l-6.149,0l0,6.735l-6.793,0m28.578,-13.469l-5.944,0l0,-6.735l18.652,0l0,6.735l-5.973,0l0,13.469l-6.735,0m15.665,-20.204l7.057,0l4.333,7.115l4.334,-7.115l7.057,0l0,20.204l-6.735,0l0,-10.014l-4.714,7.261l-4.714,-7.261l0,10.014l-6.618,0m26.119,-20.204l6.734,0l0,13.528l9.546,0l0,6.676l-16.28,0" style="fill-rule:nonzero;"/><path d="M553.589,332.912l-9.663,-108.456l106.231,0l-9.663,108.398l-43.54,12.063" style="fill:#e44d26;fill-rule:nonzero;"/><path d="M597.041,335.694l0,-102.336l43.424,0l-8.287,92.527" style="fill:#f16529;fill-rule:nonzero;"/><path d="M563.661,246.622l33.38,0l0,13.293l-18.798,0l1.23,13.616l17.568,0l0,13.264l-29.749,0m0.586,6.676l13.352,0l0.937,10.629l14.874,3.982l0,13.879l-27.289,-7.613" style="fill:#ebebeb;fill-rule:nonzero;"/><path d="M630.304,246.622l-33.321,0l0,13.293l32.091,0m-1.2,13.616l-30.891,0l0,13.293l16.397,0l-1.552,17.276l-14.845,3.982l0,13.821l27.231,-7.555" style="fill:#fff;fill-rule:nonzero;"/></svg>